<svg width="96" height="72" viewBox="0 0 96 72" xmlns="http://www.w3.org/2000/svg">
<rect x="0" y="0" width="96" height="72" rx="8" ry="8" fill="#3a3c42"/>
<rect x="14" y="14" width="14" height="10" rx="3" fill="#e6e6e6" opacity="0.85"/>
<rect x="32" y="14" width="14" height="10" rx="3" fill="#e6e6e6" opacity="0.85"/>
<rect x="50" y="14" width="14" height="10" rx="3" fill="#e6e6e6" opacity="0.85"/>
<rect x="14" y="28" width="14" height="10" rx="3" fill="#e6e6e6" opacity="0.85"/>
<rect x="32" y="28" width="14" height="10" rx="3" fill="#3584e4" opacity="0.95"/>
<rect x="50" y="28" width="14" height="10" rx="3" fill="#e6e6e6" opacity="0.85"/>
<rect x="14" y="42" width="14" height="10" rx="3" fill="#e6e6e6" opacity="0.85"/>
<rect x="32" y="42" width="14" height="10" rx="3" fill="#e6e6e6" opacity="0.85"/>
<rect x="50" y="42" width="14" height="10" rx="3" fill="#e6e6e6" opacity="0.85"/>
<rect x="14" y="56" width="14" height="10" rx="3" fill="#e6e6e6" opacity="0.85"/>
<rect x="32" y="56" width="14" height="10" rx="3" fill="#e6e6e6" opacity="0.85"/>
<rect x="50" y="56" width="14" height="10" rx="3" fill="#e6e6e6" opacity="0.85"/>
</svg>