<svg width="96" height="72" viewBox="0 0 96 72" xmlns="http://www.w3.org/2000/svg">
<rect x="0" y="0" width="96" height="72" rx="8" ry="8" fill="#3a3c42"/>
<rect x="16" y="28" width="10" height="8" rx="2" fill="#e6e6e6" opacity="0.8"/>
<rect x="30" y="28" width="10" height="8" rx="2" fill="#e6e6e6" opacity="0.8"/>
<rect x="44" y="28" width="10" height="8" rx="2" fill="#e6e6e6" opacity="0.8"/>
<rect x="58" y="28" width="10" height="8" rx="2" fill="#e6e6e6" opacity="0.8"/>
<rect x="72" y="28" width="10" height="8" rx="2" fill="#e6e6e6" opacity="0.8"/>
<rect x="86" y="28" width="10" height="8" rx="2" fill="#e6e6e6" opacity="0.8"/>
<rect x="100" y="28" width="10" height="8" rx="2" fill="#e6e6e6" opacity="0.8"/>
<rect x="16" y="40" width="10" height="8" rx="2" fill="#e6e6e6" opacity="0.8"/>
<rect x="30" y="40" width="10" height="8" rx="2" fill="#e6e6e6" opacity="0.8"/>
<rect x="44" y="40" width="10" height="8" rx="2" fill="#e6e6e6" opacity="0.8"/>
<rect x="58" y="40" width="10" height="8" rx="2" fill="#e6e6e6" opacity="0.8"/>
<rect x="72" y="40" width="10" height="8" rx="2" fill="#e6e6e6" opacity="0.8"/>
<rect x="86" y="40" width="10" height="8" rx="2" fill="#e6e6e6" opacity="0.8"/>
<rect x="100" y="40" width="10" height="8" rx="2" fill="#e6e6e6" opacity="0.8"/>
<rect x="16" y="52" width="10" height="8" rx="2" fill="#e6e6e6" opacity="0.8"/>
<rect x="30" y="52" width="10" height="8" rx="2" fill="#e6e6e6" opacity="0.8"/>
<rect x="44" y="52" width="10" height="8" rx="2" fill="#e6e6e6" opacity="0.8"/>
<rect x="58" y="52" width="10" height="8" rx="2" fill="#e6e6e6" opacity="0.8"/>
<rect x="72" y="52" width="10" height="8" rx="2" fill="#e6e6e6" opacity="0.8"/>
<rect x="86" y="52" width="10" height="8" rx="2" fill="#e6e6e6" opacity="0.8"/>
<rect x="100" y="52" width="10" height="8" rx="2" fill="#e6e6e6" opacity="0.8"/>
</svg>